<?xml version="1.0" encoding="utf-8"?>
<!-- Generator: Adobe Illustrator 24.1.1, SVG Export Plug-In . SVG Version: 6.00 Build 0)  -->
<svg version="1.1" id="Layer_1" xmlns="http://www.w3.org/2000/svg" xmlns:xlink="http://www.w3.org/1999/xlink" x="0px" y="0px"
	 viewBox="0 0 512 512" style="enable-background:new 0 0 512 512;" xml:space="preserve">
<style type="text/css">
	.st0{fill:#FABC3D;}
	.st1{fill:#0484AB;}
	.st2{fill:#059BBF;}
	.st3{fill:#21B2D1;}
	.st4{fill:#FFFFFF;}
	.st5{fill:#F37A10;}
</style>
<g id="XMLID_1_">
	<circle id="XMLID_3_" class="st0" cx="256" cy="256" r="256"/>
	<path id="XMLID_4_" class="st1" d="M404.9,134.7v241.8c0,15.8-12.6,27.6-27.6,27.6H134.7c-15.8,0-27.6-12.6-27.6-27.6V134.7
		c0-15.8,12.6-27.6,27.6-27.6h241.8C392.3,107.1,404.9,119.7,404.9,134.7z"/>
	<path id="XMLID_5_" class="st2" d="M404.9,148.9v228.4c0,15.8-12.6,27.6-27.6,27.6H134.7c-15.8,0-27.6-12.6-27.6-27.6v-63.8
		l52-33.9l79.6,14.2l72.5-48l41.7-74L404.9,148.9z"/>
	<path id="XMLID_22_" class="st3" d="M404.9,185.9v-8.7h-32.3v-18.9h-9.5v18.9h-23.6v9.5h23.6v27.6h-28.4v-14.2h-9.5v14.2h-4.7v9.5
		h4.7v27.6h-27.6h-9.5v9.5v27.6h-27.6v-8.7h-9.5v9.5h-27.6v-4.7h-9.5v4.7h-27.6v-9.5h-9.5v9.5h-27.6v-4.7h-9.5v4.7H130v9.5h10.2
		v27.6h-32.3v8.7h32.3v27.6h-32.3v9.5h32.3v32.3h9.5v-32.3h27.6v32.3h9.5v-32.3h27.6v32.3h9.5v-32.3h27.6v32.3h9.5v-32.3h27.6v32.3
		h9.5v-32.3h27.6v32.3h9.5v-32.3h27.6v32.3h9.5v-32.3h32.3v-9.5h-32.3v-27.6h32.3v-9.5h-32.3v-27.6h32.3v-9.5h-32.3v-27.6h32.3v-9.5
		h-32.3v-27.6h32.3v-9.5h-32.3v-27.6h33.1V185.9z M297.7,260.7h27.6v27.6h-27.6V260.7z M326.1,297.7v27.6h-27.6v-27.6H326.1z
		 M288.3,297.7v27.6h-27.6v-27.6H288.3z M251.3,297.7v27.6h-27.6v-27.6H251.3z M214.3,297.7v27.6h-27.6v-27.6H214.3z M148.9,297.7
		h28.4v27.6h-27.6v-27.6H148.9z M148.9,363.1v-28.4h28.4v27.6h-28.4V363.1z M185.9,363.1v-28.4h27.6v27.6h-27.6V363.1z M223.7,363.1
		v-28.4h27.6v27.6h-27.6V363.1z M260.7,363.1v-28.4h27.6v27.6h-27.6V363.1z M297.7,363.1v-28.4h27.6v27.6h-27.6V363.1z M363.1,363.1
		h-28.4v-28.4h27.6v28.4H363.1z M363.1,326.1h-28.4v-27.6h27.6v27.6H363.1z M363.1,288.3h-28.4v-27.6h27.6v27.6H363.1z M363.1,251.3
		h-28.4v-27.6h27.6v27.6H363.1z"/>
	<path id="XMLID_23_" class="st4" d="M404.9,138.6l-49.6,21.3c-12.6-6.3-25.2,7.9-18.1,19.7l-27.6,48.8
		c-10.2-1.6-18.1,7.1-15.8,17.3l-48,32.3c-2.4-1.6-5.5-3.2-8.7-3.2c-5.5,0-9.5,3.2-11.8,7.1l-53.6-9.5c-3.2-18.9-31.5-12.6-27.6,5.5
		l-37.8,24.4v11l42.5-27.6c7.1,5.5,16.5,3.2,20.5-3.9l53.6,9.5c0.8,6.3,7.1,11.8,13.4,11.8c8.7,0,15.8-7.9,13.4-17.3l48-32.3
		c13.4,10.2,29.9-7.9,18.9-20.5l26.8-47.3c11.8,3.9,22.1-7.1,17.3-18.1l42.5-18.1v-11H404.9z"/>
	<polygon id="XMLID_24_" class="st4" points="274.9,223.7 237.1,251.3 200.1,223.7 200.1,139.4 274.9,139.4 	"/>
	<path id="XMLID_28_" class="st5" d="M237.9,159.1c2.4,0,3.9,1.6,3.9,3.9v0.8c3.9,0.8,7.1,1.6,10.2,3.2c1.6,0.8,2.4,2.4,2.4,3.9
		c0,2.4-2.4,4.7-4.7,4.7c-0.8,0-1.6,0-2.4-0.8c-2.4-0.8-3.9-1.6-5.5-2.4v11c11,3.2,15,7.1,15,15s-6.3,12.6-15,14.2v3.9
		c0,2.4-1.6,3.9-3.9,3.9s-3.9-1.6-3.9-3.9v-3.9c-4.7-0.8-9.5-2.4-14.2-4.7c-1.6-0.8-2.4-2.4-2.4-3.9c0-2.4,2.4-4.7,4.7-4.7
		c0.8,0,1.6,0,2.4,0.8c3.2,1.6,5.5,3.2,8.7,3.9v-11c-10.2-2.4-15-6.3-15-15c0-7.9,6.3-12.6,15-14.2v-0.8
		C233.9,160.7,235.5,159.1,237.9,159.1z M233.9,182v-9.5c-3.2,0.8-4.7,2.4-4.7,4.7C229.2,178.8,230,180.4,233.9,182z M241,194.6v9.5
		c3.2-0.8,4.7-2.4,4.7-4.7C245.8,196.9,245,195.3,241,194.6z"/>
</g>
</svg>
